<svg width="256" height="71" viewBox="0 0 256 71" fill="none" xmlns="http://www.w3.org/2000/svg">
<rect x="1" y="7" width="254" height="63" rx="15" fill="black" stroke="black" stroke-width="2"/>
<rect x="1" y="1" width="254" height="63" rx="15" fill="#FFC366" stroke="black" stroke-width="2"/>
<path d="M22.7845 44C22.7845 42.816 22.7845 41.664 22.7845 40.544C22.7845 39.4133 22.7845 38.1227 22.7845 36.672V28.832C22.7845 27.3067 22.7845 25.9573 22.7845 24.784C22.7845 23.6107 22.7845 22.4107 22.7845 21.184C23.7658 21.184 25.1418 21.184 26.9125 21.184C28.6938 21.184 30.7525 21.184 33.0885 21.184C35.0618 21.184 36.7258 21.4133 38.0805 21.872C39.4352 22.32 40.4592 23.12 41.1525 24.272C41.8565 25.4133 42.2085 27.0187 42.2085 29.088C42.2085 30.72 41.9258 32.144 41.3605 33.36C40.8058 34.5653 39.9418 35.504 38.7685 36.176C37.6058 36.848 36.1072 37.184 34.2725 37.184C33.7712 37.184 33.2325 37.184 32.6565 37.184C32.0805 37.184 31.5205 37.184 30.9765 37.184C30.4325 37.184 29.9632 37.184 29.5685 37.184V31.68H32.3525C32.8005 31.68 33.1632 31.5947 33.4405 31.424C33.7178 31.2533 33.9205 30.9973 34.0485 30.656C34.1765 30.3147 34.2405 29.888 34.2405 29.376C34.2405 29.0027 34.2032 28.6773 34.1285 28.4C34.0538 28.112 33.9418 27.872 33.7925 27.68C33.6432 27.488 33.4618 27.344 33.2485 27.248C33.0458 27.152 32.8112 27.104 32.5445 27.104H26.8165L30.4965 22.464C30.4965 23.6907 30.4965 24.8907 30.4965 26.064C30.4965 27.2373 30.4965 28.5867 30.4965 30.112V36.672C30.4965 38.1227 30.4965 39.4133 30.4965 40.544C30.4965 41.664 30.4965 42.816 30.4965 44H22.7845ZM47.6118 44.448C46.6518 44.448 45.8624 44.24 45.2438 43.824C44.6251 43.408 44.1664 42.8587 43.8678 42.176C43.5691 41.4933 43.4198 40.7573 43.4198 39.968C43.4198 39.0187 43.5904 38.24 43.9318 37.632C44.2838 37.0133 44.7211 36.5173 45.2438 36.144C45.7664 35.7707 46.3051 35.4933 46.8598 35.312C47.4144 35.12 47.8998 34.9867 48.3158 34.912L52.4118 34.144C52.4224 33.9627 52.3424 33.7973 52.1718 33.648C52.0011 33.4987 51.7238 33.3813 51.3398 33.296C50.9558 33.2 50.4491 33.152 49.8198 33.152C49.4571 33.152 49.0571 33.1787 48.6198 33.232C48.1824 33.2853 47.7238 33.3707 47.2438 33.488C46.7744 33.5947 46.2998 33.7333 45.8198 33.904C45.3504 34.064 44.8918 34.2613 44.4438 34.496L44.1558 28.672C44.5611 28.544 45.0304 28.4107 45.5638 28.272C46.1078 28.1227 46.7051 27.984 47.3558 27.856C48.0171 27.728 48.7264 27.6267 49.4838 27.552C50.2518 27.4667 51.0571 27.424 51.8998 27.424C53.3184 27.424 54.5344 27.6267 55.5478 28.032C56.5611 28.4373 57.3344 29.0773 57.8678 29.952C58.4118 30.816 58.6838 31.9467 58.6838 33.344C58.6838 33.8987 58.6838 34.5547 58.6838 35.312C58.6838 36.0693 58.6838 36.704 58.6838 37.216V37.92C58.6838 38.816 58.6838 39.776 58.6838 40.8C58.6838 41.824 58.6838 42.8907 58.6838 44H52.9558L52.4758 41.664H52.0278C51.7611 42.176 51.4198 42.6453 51.0038 43.072C50.5984 43.488 50.1131 43.8187 49.5478 44.064C48.9824 44.32 48.3371 44.448 47.6118 44.448ZM50.9398 39.104C51.0891 39.104 51.2384 39.0667 51.3878 38.992C51.5478 38.9173 51.6971 38.8213 51.8358 38.704C51.9744 38.576 52.1024 38.432 52.2198 38.272V36C52.1344 36.096 52.0438 36.1867 51.9478 36.272C51.8518 36.3467 51.7291 36.4267 51.5798 36.512C51.4304 36.5867 51.2384 36.672 51.0038 36.768C50.8438 36.832 50.6838 36.9173 50.5238 37.024C50.3744 37.12 50.2464 37.2533 50.1398 37.424C50.0331 37.584 49.9798 37.792 49.9798 38.048C49.9798 38.4107 50.0811 38.6773 50.2838 38.848C50.4971 39.0187 50.7158 39.104 50.9398 39.104ZM69.1603 44.384C67.2509 44.384 65.6296 44.032 64.2963 43.328C62.9736 42.6133 61.9656 41.632 61.2723 40.384C60.5789 39.1253 60.2323 37.6747 60.2323 36.032C60.2323 34.3787 60.5416 32.9067 61.1603 31.616C61.7789 30.3253 62.7229 29.312 63.9923 28.576C65.2616 27.8293 66.8776 27.456 68.8403 27.456C69.4909 27.456 70.1416 27.4987 70.7923 27.584C71.4429 27.6693 72.0563 27.792 72.6323 27.952C73.2189 28.112 73.7363 28.3093 74.1843 28.544L73.7043 34.528C73.0856 34.176 72.5363 33.92 72.0563 33.76C71.5763 33.5893 71.1549 33.4773 70.7923 33.424C70.4403 33.3707 70.1416 33.344 69.8963 33.344C69.1603 33.344 68.5683 33.568 68.1203 34.016C67.6829 34.4533 67.4643 35.0507 67.4643 35.808C67.4643 36.4053 67.6029 36.9227 67.8802 37.36C68.1576 37.7867 68.5523 38.1173 69.0642 38.352C69.5869 38.576 70.2056 38.688 70.9203 38.688C71.2616 38.688 71.5976 38.656 71.9283 38.592C72.2589 38.528 72.5843 38.432 72.9043 38.304C73.2243 38.1653 73.5336 37.9947 73.8323 37.792L74.0883 43.776C73.6936 43.904 73.2563 44.0107 72.7763 44.096C72.3069 44.192 71.7736 44.2613 71.1763 44.304C70.5896 44.3573 69.9176 44.384 69.1603 44.384ZM85.8205 44C85.6178 43.4133 85.4098 42.832 85.1965 42.256C84.9938 41.68 84.7912 41.1147 84.5885 40.56L83.8045 38.368H82.5245V33.824H83.8045L84.6045 31.728C84.8498 31.0987 85.0898 30.4693 85.3245 29.84C85.5698 29.2 85.8098 28.5653 86.0445 27.936H94.1085C93.5005 28.9387 92.8978 29.9307 92.3005 30.912C91.7032 31.8827 91.1058 32.864 90.5085 33.856L88.7325 36.768L88.3805 33.728L90.7965 37.92C91.3832 38.9333 91.9698 39.952 92.5565 40.976C93.1432 41.9893 93.7245 42.9973 94.3005 44H85.8205ZM75.9325 44C75.9325 42.8907 75.9325 41.8133 75.9325 40.768C75.9325 39.7227 75.9325 38.528 75.9325 37.184V28.224C75.9325 26.9547 75.9325 25.6853 75.9325 24.416C75.9325 23.136 75.9325 21.8347 75.9325 20.512L83.0365 20C83.0365 21.2267 83.0365 22.5227 83.0365 23.888C83.0365 25.2427 83.0365 26.688 83.0365 28.224V38.688C83.0365 39.6267 83.0365 40.5173 83.0365 41.36C83.0365 42.2027 83.0365 43.0827 83.0365 44H75.9325ZM101.878 44C101.878 42.816 101.878 41.664 101.878 40.544C101.878 39.4133 101.878 38.1227 101.878 36.672V28.832C101.878 27.3067 101.878 25.9573 101.878 24.784C101.878 23.6107 101.878 22.4107 101.878 21.184H108.63C109.388 22.3467 110.07 23.4027 110.678 24.352C111.297 25.3013 111.926 26.272 112.566 27.264L114.934 30.912H115.478V28.832C115.478 27.3067 115.478 25.9573 115.478 24.784C115.478 23.6107 115.478 22.4107 115.478 21.184H122.806C122.806 22.4107 122.806 23.6107 122.806 24.784C122.806 25.9573 122.806 27.3067 122.806 28.832V36.672C122.806 38.1227 122.806 39.4133 122.806 40.544C122.806 41.664 122.806 42.816 122.806 44H116.118C115.51 43.072 114.886 42.1227 114.246 41.152C113.606 40.1707 112.913 39.1147 112.166 37.984L109.718 34.272H109.206V36.672C109.206 38.1227 109.206 39.4133 109.206 40.544C109.206 41.664 109.206 42.816 109.206 44H101.878ZM134.297 44.512C132.057 44.512 130.244 44.1493 128.857 43.424C127.471 42.6987 126.457 41.696 125.817 40.416C125.177 39.1253 124.857 37.6427 124.857 35.968C124.857 34.2933 125.145 32.816 125.721 31.536C126.297 30.2453 127.183 29.2373 128.377 28.512C129.583 27.7867 131.129 27.424 133.017 27.424C134.596 27.424 135.94 27.68 137.049 28.192C138.159 28.704 139.007 29.504 139.593 30.592C140.18 31.6693 140.473 33.0667 140.473 34.784C140.473 35.2427 140.457 35.648 140.425 36C140.404 36.3413 140.367 36.6827 140.313 37.024L134.329 35.072C134.351 34.944 134.367 34.8107 134.377 34.672C134.388 34.5333 134.393 34.4107 134.393 34.304C134.393 33.5787 134.271 33.0027 134.025 32.576C133.78 32.1493 133.465 31.936 133.081 31.936C132.815 31.936 132.559 32.032 132.313 32.224C132.079 32.416 131.887 32.7253 131.737 33.152C131.588 33.568 131.513 34.1227 131.513 34.816V36.064C131.513 36.672 131.636 37.1787 131.881 37.584C132.137 37.9787 132.537 38.2773 133.081 38.48C133.625 38.6827 134.34 38.784 135.225 38.784C135.567 38.784 136.015 38.7467 136.569 38.672C137.135 38.5867 137.721 38.4693 138.329 38.32C138.948 38.16 139.513 37.9627 140.025 37.728L140.249 43.552C139.823 43.712 139.321 43.8667 138.745 44.016C138.169 44.1653 137.508 44.2827 136.761 44.368C136.025 44.464 135.204 44.512 134.297 44.512ZM127.513 37.024V34.4L136.249 34.08L140.313 34.464V37.024H127.513ZM145.3 44C145.001 42.9867 144.703 41.9733 144.404 40.96C144.116 39.9467 143.817 38.9227 143.508 37.888L142.676 35.04C142.324 33.8347 141.977 32.6507 141.636 31.488C141.295 30.3147 140.948 29.1307 140.596 27.936L148.18 27.744C148.308 28.64 148.441 29.5733 148.58 30.544C148.719 31.5147 148.852 32.4533 148.98 33.36L149.46 36.736H149.94L150.388 33.328C150.505 32.4107 150.623 31.5147 150.74 30.64C150.857 29.7547 150.975 28.8533 151.092 27.936H157.588C157.705 28.8 157.823 29.696 157.94 30.624C158.068 31.5413 158.185 32.448 158.292 33.344L158.74 36.736H159.22L159.668 33.232C159.775 32.3893 159.887 31.4987 160.004 30.56C160.121 29.6107 160.233 28.736 160.34 27.936H168.02C167.657 29.1307 167.295 30.32 166.932 31.504C166.569 32.688 166.207 33.8667 165.844 35.04L164.98 37.856C164.66 38.8907 164.34 39.9253 164.02 40.96C163.711 41.9947 163.401 43.008 163.092 44H155.316C155.209 43.328 155.092 42.6293 154.964 41.904C154.847 41.1787 154.729 40.48 154.612 39.808L154.196 37.312H153.748L153.364 39.904C153.268 40.544 153.167 41.2213 153.06 41.936C152.953 42.6507 152.852 43.3387 152.756 44H145.3ZM187.307 44.512C185.109 44.512 183.227 44.192 181.659 43.552C180.101 42.9013 178.832 42.0213 177.851 40.912C176.869 39.792 176.144 38.5227 175.675 37.104C175.216 35.6747 174.987 34.1867 174.987 32.64C174.987 30.4213 175.413 28.4107 176.267 26.608C177.131 24.7947 178.453 23.3547 180.235 22.288C182.027 21.2107 184.32 20.672 187.115 20.672C189.237 20.672 191.072 20.9813 192.619 21.6C194.165 22.2187 195.44 23.0773 196.443 24.176C197.445 25.264 198.187 26.528 198.667 27.968C199.157 29.408 199.403 30.9547 199.403 32.608C199.403 34.8907 198.955 36.928 198.059 38.72C197.163 40.512 195.819 41.9253 194.027 42.96C192.235 43.9947 189.995 44.512 187.307 44.512ZM187.211 38.176C187.84 38.176 188.4 38.032 188.891 37.744C189.381 37.456 189.797 37.056 190.139 36.544C190.491 36.032 190.757 35.44 190.939 34.768C191.12 34.096 191.211 33.376 191.211 32.608C191.211 31.8187 191.109 31.0827 190.907 30.4C190.715 29.7173 190.437 29.1253 190.075 28.624C189.723 28.112 189.301 27.7173 188.811 27.44C188.331 27.152 187.797 27.008 187.211 27.008C186.603 27.008 186.048 27.152 185.547 27.44C185.056 27.7173 184.635 28.112 184.283 28.624C183.931 29.1253 183.659 29.7173 183.467 30.4C183.275 31.0827 183.179 31.8187 183.179 32.608C183.179 33.376 183.269 34.096 183.451 34.768C183.632 35.44 183.893 36.032 184.235 36.544C184.587 37.056 185.013 37.456 185.515 37.744C186.016 38.032 186.581 38.176 187.211 38.176ZM201.276 44C201.276 42.8907 201.276 41.8133 201.276 40.768C201.276 39.7227 201.276 38.528 201.276 37.184V35.584C201.276 34.3147 201.276 33.056 201.276 31.808C201.276 30.5493 201.276 29.2587 201.276 27.936L207.164 27.616L207.484 30.208H208.028C208.412 29.6427 208.844 29.152 209.324 28.736C209.815 28.32 210.364 28 210.972 27.776C211.58 27.5413 212.263 27.424 213.02 27.424C214.524 27.424 215.708 27.888 216.572 28.816C217.447 29.7333 217.884 31.1467 217.884 33.056C217.884 33.7707 217.884 34.4693 217.884 35.152C217.884 35.8347 217.884 36.512 217.884 37.184C217.884 38.528 217.884 39.7227 217.884 40.768C217.884 41.8133 217.884 42.8907 217.884 44H210.78C210.78 42.8907 210.78 41.8293 210.78 40.816C210.78 39.8027 210.78 38.7307 210.78 37.6V35.52C210.78 34.9547 210.706 34.5333 210.556 34.256C210.407 33.968 210.14 33.824 209.756 33.824C209.575 33.824 209.399 33.8613 209.228 33.936C209.068 34.0107 208.914 34.1173 208.764 34.256C208.626 34.384 208.498 34.528 208.38 34.688V37.6C208.38 38.7307 208.38 39.8027 208.38 40.816C208.38 41.8293 208.38 42.8907 208.38 44H201.276ZM228.86 44.512C226.62 44.512 224.806 44.1493 223.42 43.424C222.033 42.6987 221.02 41.696 220.38 40.416C219.74 39.1253 219.42 37.6427 219.42 35.968C219.42 34.2933 219.708 32.816 220.284 31.536C220.86 30.2453 221.745 29.2373 222.94 28.512C224.145 27.7867 225.692 27.424 227.58 27.424C229.158 27.424 230.502 27.68 231.612 28.192C232.721 28.704 233.569 29.504 234.156 30.592C234.742 31.6693 235.036 33.0667 235.036 34.784C235.036 35.2427 235.02 35.648 234.988 36C234.966 36.3413 234.929 36.6827 234.876 37.024L228.892 35.072C228.913 34.944 228.929 34.8107 228.94 34.672C228.95 34.5333 228.956 34.4107 228.956 34.304C228.956 33.5787 228.833 33.0027 228.588 32.576C228.342 32.1493 228.028 31.936 227.644 31.936C227.377 31.936 227.121 32.032 226.876 32.224C226.641 32.416 226.449 32.7253 226.3 33.152C226.15 33.568 226.076 34.1227 226.076 34.816V36.064C226.076 36.672 226.198 37.1787 226.444 37.584C226.7 37.9787 227.1 38.2773 227.644 38.48C228.188 38.6827 228.902 38.784 229.788 38.784C230.129 38.784 230.577 38.7467 231.132 38.672C231.697 38.5867 232.284 38.4693 232.892 38.32C233.51 38.16 234.076 37.9627 234.588 37.728L234.812 43.552C234.385 43.712 233.884 43.8667 233.308 44.016C232.732 44.1653 232.07 44.2827 231.324 44.368C230.588 44.464 229.766 44.512 228.86 44.512ZM222.076 37.024V34.4L230.812 34.08L234.876 34.464V37.024H222.076Z" fill="black"/>
</svg>
