<svg width="13" height="22" viewBox="0 0 13 22" fill="none" xmlns="http://www.w3.org/2000/svg">
<path d="M0.5625 11.1865C0.5625 10.8813 0.672363 10.6006 0.904297 10.3809L10.5845 0.908203C10.792 0.700684 11.0605 0.59082 11.3779 0.59082C12.0127 0.59082 12.501 1.06689 12.501 1.70166C12.501 2.00684 12.3667 2.2876 12.1714 2.49512L3.28467 11.1865L12.1714 19.8779C12.3667 20.0854 12.501 20.354 12.501 20.6714C12.501 21.3062 12.0127 21.7822 11.3779 21.7822C11.0605 21.7822 10.792 21.6724 10.5845 21.4526L0.904297 11.9922C0.672363 11.7603 0.5625 11.4917 0.5625 11.1865Z" fill="black"/>
</svg>
